solid OpenSCAD_Model
  facet normal 1 -0 0
    outer loop
      vertex 2 -63.2 4
      vertex 2 0 -4
      vertex 2 0 4
    endloop
  endfacet
  facet normal 1 0 0
    outer loop
      vertex 2 0 -4
      vertex 2 -63.2 4
      vertex 2 -63.2 -4
    endloop
  endfacet
  facet normal 0 1 -0
    outer loop
      vertex 4.5 -63.2 -4
      vertex 2 -63.2 4
      vertex 4.5 -63.2 4
    endloop
  endfacet
  facet normal 0 1 0
    outer loop
      vertex 2 -63.2 4
      vertex 4.5 -63.2 -4
      vertex 2 -63.2 -4
    endloop
  endfacet
  facet normal 0 -1 0
    outer loop
      vertex 2 0 -4
      vertex 28.15 0 4
      vertex 2 0 4
    endloop
  endfacet
  facet normal 0 -1 -0
    outer loop
      vertex 28.15 0 4
      vertex 2 0 -4
      vertex 28.15 0 -4
    endloop
  endfacet
  facet normal -1 0 0
    outer loop
      vertex 0 -67.2 -4
      vertex 0 2 4
      vertex 0 2 -4
    endloop
  endfacet
  facet normal -1 -0 0
    outer loop
      vertex 0 2 4
      vertex 0 -67.2 -4
      vertex 0 -67.2 4
    endloop
  endfacet
  facet normal 0 0 1
    outer loop
      vertex 28.15 2 4
      vertex 2 0 4
      vertex 28.15 0 4
    endloop
  endfacet
  facet normal 0 0 1
    outer loop
      vertex 2 0 4
      vertex 0 2 4
      vertex 2 -63.2 4
    endloop
  endfacet
  facet normal -0 0 1
    outer loop
      vertex 0 2 4
      vertex 2 0 4
      vertex 28.15 2 4
    endloop
  endfacet
  facet normal -0 0 1
    outer loop
      vertex 2 -63.2 4
      vertex 0 -67.2 4
      vertex 4.5 -63.2 4
    endloop
  endfacet
  facet normal 0 0 1
    outer loop
      vertex 0 -67.2 4
      vertex 2 -63.2 4
      vertex 0 2 4
    endloop
  endfacet
  facet normal 0 0 -1
    outer loop
      vertex 0 2 -4
      vertex 2 -63.2 -4
      vertex 0 -67.2 -4
    endloop
  endfacet
  facet normal 0 0 -1
    outer loop
      vertex 0 -67.2 -4
      vertex 2 -63.2 -4
      vertex 4.5 -63.2 -4
    endloop
  endfacet
  facet normal 0 0 -1
    outer loop
      vertex 2 0 -4
      vertex 28.15 2 -4
      vertex 28.15 0 -4
    endloop
  endfacet
  facet normal 0 0 -1
    outer loop
      vertex 2 0 -4
      vertex 0 2 -4
      vertex 28.15 2 -4
    endloop
  endfacet
  facet normal 0 0 -1
    outer loop
      vertex 2 -63.2 -4
      vertex 0 2 -4
      vertex 2 0 -4
    endloop
  endfacet
  facet normal 0.664364 -0.747409 0
    outer loop
      vertex 0 -67.2 -4
      vertex 4.5 -63.2 4
      vertex 0 -67.2 4
    endloop
  endfacet
  facet normal 0.664364 -0.747409 0
    outer loop
      vertex 4.5 -63.2 4
      vertex 0 -67.2 -4
      vertex 4.5 -63.2 -4
    endloop
  endfacet
  facet normal 1 -0 0
    outer loop
      vertex 28.15 0 4
      vertex 28.15 2 -4
      vertex 28.15 2 4
    endloop
  endfacet
  facet normal 1 0 0
    outer loop
      vertex 28.15 2 -4
      vertex 28.15 0 4
      vertex 28.15 0 -4
    endloop
  endfacet
  facet normal 0 1 -0
    outer loop
      vertex 28.15 2 -4
      vertex 0 2 4
      vertex 28.15 2 4
    endloop
  endfacet
  facet normal 0 1 0
    outer loop
      vertex 0 2 4
      vertex 28.15 2 -4
      vertex 0 2 -4
    endloop
  endfacet
endsolid OpenSCAD_Model
