solid OpenSCAD_Model
  facet normal 1 0 0
    outer loop
      vertex 47.62 -7.43 -1.25005
      vertex 47.62 32.43 -1.25005
      vertex 47.62 -7.43 -1.24995
    endloop
  endfacet
  facet normal 0 1 0
    outer loop
      vertex 47.62 32.43 -1.24995
      vertex -47.62 32.43 -1.24995
      vertex 45.12 32.43 1.25005
    endloop
  endfacet
  facet normal 0 0 -1
    outer loop
      vertex -47.62 -7.43 -1.25005
      vertex 47.62 32.43 -1.25005
      vertex 47.62 -7.43 -1.25005
    endloop
  endfacet
  facet normal 0 0 -1
    outer loop
      vertex -47.62 32.43 -1.25005
      vertex 47.62 32.43 -1.25005
      vertex -47.62 -7.43 -1.25005
    endloop
  endfacet
  facet normal -0.707107 0 0.707107
    outer loop
      vertex -45.12 32.43 1.25005
      vertex -47.62 32.43 -1.24995
      vertex -45.12 -7.43 1.25005
    endloop
  endfacet
  facet normal 0 1 -0
    outer loop
      vertex 47.62 32.43 -1.25005
      vertex -47.62 32.43 -1.24995
      vertex 47.62 32.43 -1.24995
    endloop
  endfacet
  facet normal 0 -1 -0
    outer loop
      vertex 47.62 -7.43 -1.24995
      vertex -47.62 -7.43 -1.25005
      vertex 47.62 -7.43 -1.25005
    endloop
  endfacet
  facet normal 0 1 0
    outer loop
      vertex 45.12 32.43 1.25005
      vertex -47.62 32.43 -1.24995
      vertex -45.12 32.43 1.25005
    endloop
  endfacet
  facet normal 0.707107 0 0.707107
    outer loop
      vertex 47.62 32.43 -1.24995
      vertex 45.12 32.43 1.25005
      vertex 47.62 -7.43 -1.24995
    endloop
  endfacet
  facet normal 0 -1 -0
    outer loop
      vertex 45.12 -7.43 1.25005
      vertex -47.62 -7.43 -1.25005
      vertex 47.62 -7.43 -1.24995
    endloop
  endfacet
  facet normal 0 0 1
    outer loop
      vertex -45.12 -7.43 1.25005
      vertex 45.12 32.43 1.25005
      vertex -45.12 32.43 1.25005
    endloop
  endfacet
  facet normal -0.707107 0 0.707107
    outer loop
      vertex -45.12 -7.43 1.25005
      vertex -47.62 32.43 -1.24995
      vertex -47.62 -7.43 -1.24995
    endloop
  endfacet
  facet normal 0 -1 -0
    outer loop
      vertex -45.12 -7.43 1.25005
      vertex -47.62 -7.43 -1.25005
      vertex 45.12 -7.43 1.25005
    endloop
  endfacet
  facet normal 0 -1 0
    outer loop
      vertex -47.62 -7.43 -1.24995
      vertex -47.62 -7.43 -1.25005
      vertex -45.12 -7.43 1.25005
    endloop
  endfacet
  facet normal 0 1 0
    outer loop
      vertex -47.62 32.43 -1.25005
      vertex -47.62 32.43 -1.24995
      vertex 47.62 32.43 -1.25005
    endloop
  endfacet
  facet normal 1 -0 0
    outer loop
      vertex 47.62 -7.43 -1.24995
      vertex 47.62 32.43 -1.25005
      vertex 47.62 32.43 -1.24995
    endloop
  endfacet
  facet normal 0 -0 1
    outer loop
      vertex 45.12 -7.43 1.25005
      vertex 45.12 32.43 1.25005
      vertex -45.12 -7.43 1.25005
    endloop
  endfacet
  facet normal 0.707107 0 0.707107
    outer loop
      vertex 47.62 -7.43 -1.24995
      vertex 45.12 32.43 1.25005
      vertex 45.12 -7.43 1.25005
    endloop
  endfacet
  facet normal -1 0 0
    outer loop
      vertex -47.62 -7.43 -1.25005
      vertex -47.62 32.43 -1.24995
      vertex -47.62 32.43 -1.25005
    endloop
  endfacet
  facet normal -1 0 0
    outer loop
      vertex -47.62 -7.43 -1.24995
      vertex -47.62 32.43 -1.24995
      vertex -47.62 -7.43 -1.25005
    endloop
  endfacet
endsolid OpenSCAD_Model
